<?xml version="1.0" encoding="utf-8"?>
<!-- Generator: Adobe Illustrator 24.2.0, SVG Export Plug-In . SVG Version: 6.00 Build 0)  -->
<svg version="1.1" id="Layer_1" xmlns="http://www.w3.org/2000/svg" xmlns:xlink="http://www.w3.org/1999/xlink" x="0px" y="0px"
	 viewBox="0 0 1000 1000" style="enable-background:new 0 0 1000 1000;" xml:space="preserve">
<style type="text/css">
	.st0{fill:#ffffff;}
</style>
<path class="st0" d="M697.5,674.3c2,2.7,4.5,4.3,7.2,5.4c7.1,3.1,14.5,4.2,22.2,4.4c3.9,0.1,7.8-0.3,11.9-0.2
	c-1.7,2.1-3.3,4.1-5.3,5.7c-14,11-29.9,17.2-47.8,16.8c-12.6-0.3-24.6-3.2-34.9-11.1c-8.6-6.5-14.7-14.8-18.8-24.7
	c-2.1-5.1-3.6-10.4-4.2-15.8c-0.2-1.8-0.8-1.6-1.8-0.7c-4,3.2-5.7,7.6-6.4,12.5c-1.2,9.4,1.2,18.1,5.1,26.5c0.4,0.8,1,1.5,1,2.6
	c-5.2-1.7-9.9-4.2-14-7.7c-11.8-10-16.4-22.9-15.5-38.1c0.4-7,0.6-14,0.4-21c-0.2-8.9-3.9-16.1-10.4-21.8
	c-4.6-4.1-9.6-7.8-14.2-11.8c-10-8.8-20.9-16.7-30.7-25.8c-8.2-7.6-12.5-17.1-12.5-28.5c0-5.9-3-10.5-7.3-14.2
	c-4.2-3.6-8.8-6.6-12.7-10.5c-5.8-5.8-7.3-12.6-5.1-20.4c0.1-0.4,0.4-0.8,0.7-1.5c1.2,3.1,2.2,5.9,4.1,8.3c3.7,4.9,8.9,6.8,14.8,7.5
	c3.6,0.4,7.2,0.6,10.8,1.1c7,1,10.8,5.1,12.2,11.8c0.6,3,1.1,6.1,2,9c1.2,4,3.9,6,8,6.5c4.4,0.5,8.9,0.3,13.3,1
	c5.8,0.9,11,3.4,15.5,7.1c15.9,13.1,31.8,26.2,47.6,39.3c4.1,3.4,8.4,6.4,13.8,7.4c15.2,3,26.9-10.6,24.3-24.2c-0.2-1-0.3-2-0.5-3.1
	c14.4,5.5,26.8,39.7,6.2,59.2c1.2,0.6,2.5,0.5,3.8,0.6c2.4,0.2,4.7,0.3,7.1,0.2c0,0,0,0,0,0c-1.8,1.6-4.2,2.9-7.2,3.9
	c-3.8,1.2-8.5,2.2-14,2.9c-5.2,0.6-9.4,3.3-11.9,7.6c-2.1,3.5-2.8,7.5-2.2,11.3c0.5,3,1.6,5.8,3.4,8.4c2.6,3.7,6.7,5.9,11.1,5.9
	c0.6,0,1.3,0,2-0.1c5.3-0.5,9.9-1,14.1-1.5c4.1-0.5,8.1-0.9,12-1.1c4-0.2,8.2-0.4,12.5-0.6c4.3-0.1,9.2-0.2,14.4-0.2
	c6,0,12.7,0.3,19.9,0.8c-1.6,1.1-3.3,2.2-5.1,3.2C724.3,673.4,712.9,675.4,697.5,674.3z M578.6,535c3.3,1.5,6.4,3.2,9.2,5.4
	c5.5,4.4,11,8.9,16.5,13.3c2.2,1.7,2.3,1.7,3.4-0.9c7.2-16,15.6-31.3,25.8-45.5c4.9-6.8,10-13.5,15.8-19.5c5.6-5.8,12.4-9.8,20-12.2
	c7.7-2.4,15.4-3.6,23-2.6v-14.6c0-5.4-0.2-10.8-0.6-15.9c0-0.3-0.1-0.6-0.1-0.9c-3.6,1.1-7.3,2.2-10.9,3.2c-1.7,0.5-3.5,0.4-4.6-1.2
	c-1-1.4-0.4-3.8,1.1-5.2c1.7-1.5,3.4-3,5.2-4.4c2.2-1.8,4.5-3.4,6.8-5.2c-1.4-0.6-2.6-0.2-3.8,0.1c-9.6,2-17.7,7.1-25.4,13
	c-5.6,4.3-11.2,8.6-16.7,13c-1.9,1.5-3.9,1.4-6,1.3c-0.8,0-0.8-0.5-0.8-1.1c-0.1-2,0-3.9,1.1-5.8c1.5-2.6,2.9-5.2,4.5-7.9
	c-17.4,8.5-44.8,43.3-46.1,58.4c5.9-6.2,12.1-11.9,19-16.8c15.8-11.3,33-19.7,52.3-23.4c5.3-1,10.6-1.2,15.9-0.9
	c-14.4,2.2-27.9,7-40.6,14.1c-20,11.1-37.1,25.9-52,43.1c-4.4,5.1-8.7,10.5-12.7,15.9C576.3,534,576.3,534,578.6,535z M921.1,527.7
	c0,21.7-3.5,40.5-10.4,56.5c-7,16-16.5,29.3-28.6,40c-12.1,10.7-26.5,18.6-43.1,23.8c-16.6,5.2-34.6,7.7-54,7.7
	c-11.6,0-22.9-0.5-33.8-1.5c-11-1-20.8-1.5-29.6-1.5c-5.4,0-10.3,0.1-14.7,0.2c-4.4,0.1-8.6,0.3-12.8,0.6c-4.1,0.3-8.3,0.6-12.6,1.2
	c-4.3,0.5-9,1-14.1,1.5c-0.3,0-0.5,0.1-0.7,0.1c0,0,0,0,0.1,0c0,0,0,0-0.1,0c0,0-0.1,0-0.1,0c-1.2,0-2.1-0.6-2.8-1.6
	c-0.9-1.3-1.5-2.7-1.7-4.3c-0.3-1.5,0.1-3.1,1-4.6c0.9-1.5,2.4-2.4,4.4-2.7c6.2-0.8,11.5-1.9,15.9-3.3c4.4-1.4,8-3.4,10.8-6
	c2.8-2.6,4.9-5.9,6.2-10.1c1.3-4.1,1.9-9.5,1.9-16.2V458.5c0-5.7-0.2-11.2-0.6-16.6c-0.4-5.4-1.2-10.4-2.5-15.1
	c-1.3-4.6-3.3-8.6-6-12c-2.7-3.3-6.4-5.7-11-7c-2.8-0.8-5.8-1.4-8.9-1.9c-3.1-0.5-6.1-0.9-8.9-1.2c-1.5,0-2.7-0.6-3.5-1.9
	c-0.8-1.3-1.2-2.7-1.2-4.3c0-1.5,0.4-3,1.2-4.3c0.8-1.3,1.9-1.9,3.5-1.9c8.8,0,16.6,0.3,23.6,0.8c7,0.5,15.1,0.8,24.4,0.8
	c10.6,0,21-0.2,31.3-0.6c10.3-0.4,20.8-0.7,31.3-1c21.1,0,40.7,3.4,58.6,10.1c17.9,6.7,33.3,16,46.2,28c12.9,12,23,26.3,30.4,42.9
	C917.4,490,921.1,508.1,921.1,527.7z M871.6,527.3c0-18.8-1.9-35.5-5.8-50.1c-3.9-14.6-10.2-26.8-19-36.7
	c-8.8-9.9-20.4-17.4-35-22.4c-14.6-5-32.4-7.5-53.6-7.5c-5.2,0-8.8,0.9-10.8,2.7c-2.1,1.8-3.1,5.3-3.1,10.4v157
	c0,12.9,0.6,23.1,1.7,30.7c1.2,7.6,3.4,13.3,6.8,17.2c3.3,3.9,8.2,6.4,14.5,7.5c6.3,1.2,14.8,1.7,25.3,1.7c11.6,0,22.2-2.4,31.9-7.3
	c9.7-4.9,18-12,24.9-21.5c7-9.4,12.4-20.9,16.2-34.6C869.7,560.8,871.6,545.1,871.6,527.3z M395.9,398.3c2.2,4,5.1,7.6,9.4,10.5
	c-3.5-15.5-1.2-29.8,5.6-44.1c2.1,6.9,4.7,13,8.2,18.5c6.4,10.1,15,17.9,25.6,23.6c0.6,0.3,1.2,1,1.8,0.6c0.6-0.4,0.2-1.3,0.1-1.9
	c-1.2-9.5-0.9-18.9,0.8-28.3c0.7-3.7,1.7-7.3,1-11.3c-2.2-12.2,0.4-23.4,8.4-33.2c10.8-13.3,32.4-14.6,44.3-2.6
	c8,8.1,11,18.3,10.8,29.5c-0.2,10.9-3,21-8.9,30.2c-0.5,0.8-0.6,1.4,0.1,2.2c2.5,3.2,5.2,6.4,8,9.4c8.5,9,18,16.9,26.8,25.5
	c1.1,1.1,1.5,0.9,2.4-0.2c8.4-10.8,14.5-22.9,19.1-35.8c4.8-13.4,6.8-27.2,4.9-41.5c-1.6-11.4-5.3-22.1-11.3-31.9
	c-7.9-12.9-18.6-22.6-32.4-28.7c-9.6-4.3-19.7-6.5-30.2-7c-9-0.4-17.8,0.4-26.5,2.7c-10.9,3-20.5,8.3-28.6,16.3
	c-0.5,0.4-0.9,1.3-1.7,0.8c-0.6-0.4-0.1-1.1,0-1.7c0.7-4.1,1.5-8.2,2.3-12.7c-18.3,13.6-29.5,31.4-35.7,52.8
	c-1-5.1-1.9-10.2-2.9-15.5c-2.5,2.6-5,7.2-6.5,11.4c-3.2,9.4-4.1,19.1-3.6,29C387.9,376.7,390.2,388,395.9,398.3z M354.9,469.6
	c4.5-3.4,8.8-6.8,13.5-9.5c8.8-5,17.7-10,26.5-15c2.1-1.2,4-2.6,5.8-4.3c3.1-3,3.4-6.1,0.8-9.7c-3.3-4.7-7.5-8.6-11.5-12.6
	c-1.8-1.7-3.3-3.7-6-5.2c10.8-1.1,20.9,0.1,31.3,2c-1.8-4-3.3-7.6-4.2-11.5c-1.3-5.9-1.3-11.7,0.1-17.5c0.1-0.4,0-1.1,0.6-1.2
	c0.5-0.1,0.6,0.4,0.8,0.8c5.6,10.7,14.7,17.9,24.7,24c8.6,5.3,17.7,10,26.1,15.7c4.9,3.3,9.3,7.2,13.1,11.9c0.1,0.1,0.3,0.2,0.7,0.4
	c-2.1-6.1-5.6-11-9.9-15.4c-2.7-2.8-5.7-5.4-9-7.5c-2.5-1.6-3.6-3.9-4.2-6.7c-3.2-15.2-1.7-29.9,4.4-44.1c0.5-1.2,0.9-3,2.2-2.9
	c0.9,0.1,0.4,2,0.5,3.1c1.1,12.2,6.3,22.6,14,31.9c5.4,6.6,11.4,12.6,17.9,18.2c12.2,10.6,23.9,21.8,34.4,34.1
	c0.3,0.4,0.5,0.8,0.8,1.2c0.2-0.1,0.3-0.3,0.5-0.4c-1.4-3.2-3.1-6.2-5-9.1c-5.4-8.3-12.4-15.2-19.6-21.8c-6-5.6-12.1-11.1-18.1-16.7
	c-3-2.8-4.6-6.4-4.9-10.4c-0.8-8.7,0.2-17.1,3.9-25.1c0.2-0.4,0.3-0.8,0.8-0.9c0.8,0.3,0.5,1,0.5,1.6c0.7,7.9,3,15.3,7.1,22.1
	c4.9,8.2,11.3,15.2,18.2,21.7c8.3,7.7,16.9,15.1,24.3,23.7c6.4,7.4,13,14.7,16.5,24.2c2.1,5.8,2.9,11.7,2,17.8
	c-0.2,1.3,0,2.1,1.4,2.7c4.8,2.1,7.5,5.8,7.7,11.4c5.9-1.8,9.5-6.1,12.9-10.8c4.7,11.2-6,40.9-21.9,47.2c0.2-3,1-6,0.4-9
	c-1.1-6.1-4.5-10.2-10.2-12.3c-6.5-2.3-13.2-3.1-20-2.6c-2.7,0.2-2.7,0.1-1.7-2.3c1.3-3.2,3-6.3,3.6-9.8c0.7-3.8-0.8-6.3-4.6-6.9
	c-8.6-1.4-17.1-1.6-25.8-0.2c-6.1,1-12.2,1.9-18.3,2.8c-0.8,0.1-1.6,0.3-2.7,1c2.6,0.4,4.9,0.7,7.2,1c3.4,0.4,6.8,0.9,10.2,1.3
	c1.2,0.1,1.5,0.5,1,1.7c-1.3,3.2-2.5,6.5-3.7,9.8c-1,2.8-1.4,5.7-1.4,8.7c0,3.9,2.8,5.7,6.4,4.3c1.2-0.4,2.7-1,3.5-0.5
	c1,0.6,0,2.1-0.2,3.2c-0.5,3.2-1.3,6.5-1.2,9.8c0.1,4.5,2,6.5,6.6,6.6c1.6,0,3.3-0.2,4.9-0.3c1.1-0.1,1.3,0.2,0.9,1.2
	c-0.8,2.2-2.1,4-3.7,5.6c-8.7,8.9-19.4,13.3-31.6,14.6c0-1.1,0.7-1.5,1.2-2c3.2-3.7,6.5-7.3,9.7-11c0.4-0.4,1.2-0.7,0.7-1.5
	c-0.4-0.7-1.1-0.4-1.7-0.4c-3.9,0.5-7.9,1.1-11.8,1.5c-0.6,0.1-1.6,0.6-2-0.3c-0.3-0.8,0.6-1.1,1.1-1.6c4-3.9,6.9-8.5,8.1-14
	c3-13.9-3.8-24.5-17.6-27.7c-8.1-1.8-15.9-1.1-23.5,2.5c-0.6,0.3-1.1,0.5-1.7,0.7c-0.2,0.1-0.4,0-0.9-0.1
	c2.5-6.3,6.2-11.6,10.8-16.3c4.6-4.7,10-8.4,16.2-11.8c-6.9-1.8-13.3-3.5-20.1-5.2c11-7.2,22.9-10.1,35.1-12.3
	c-10-0.9-19.9-0.4-29.6,2.5c-9.7,2.9-18.2,7.9-26,15.1c6.2,1.1,12.1,2.2,17.9,3.3c-9.1,3.4-17.7,7.5-26,12.4
	c-8.3,4.9-16,10.6-23.7,17.1c0.9-4,1.7-7.5,2.3-11.1c0.8-4,1-8,0.1-12.1c-1.5-7-6.4-11.5-13.6-12.8c-5.8-1.1-11.6-0.4-17.4-0.1
	C359.4,469.7,357.3,469.6,354.9,469.6z M508.3,453c1.1,11.4,8.9,20.1,19.1,19.8C523.7,463.6,517.6,456.8,508.3,453z M649.3,718.3
	c0,0,0.1,0,0.1,0c0-4.5,0-9,0-13.6c0,0-0.1,0-0.1,0C649.3,709.3,649.3,713.8,649.3,718.3z M581.9,615.9c-3.1,6.2-6.3,12.3-10,18.2
	c-12.2,19-26.6,35.9-46.1,47.9c-8.6,5.3-17.7,9.3-27.3,12.2c-14.1,4.2-28.4,5.7-43.1,4.5c-12.6-1.1-24.7-4.2-36.1-9.6
	c-14.2-6.8-26.8-15.8-36.6-28.3c-1.4-1.8-2.8-3.7-4.2-5.6c-0.3-0.4-0.5-1-1.1-0.8c-0.6,0.2-0.3,0.8-0.3,1.2c0.3,5.1,0.7,10.3,1,15.4
	c0,0.2,0,0.5,0.1,1.2c-4.9-5.4-9.5-10.4-13.1-16.3c-9.3-14.9-14.7-31.1-17.3-48.4c-1.7-11.7-2.2-23.3-0.9-35.1
	c1.3-11.8,4.3-23.1,9-34.1c0.3-0.6,1.1-1.3,0.2-2c-0.7-0.5-1.2,0.4-1.7,0.7c-4.7,3.2-9.3,6.5-14.2,9.9c-1.5,13.7-4.6,26.1-9.4,37.1
	c-7,16-16.5,29.3-28.6,40c-12.1,10.7-26.5,18.6-43.1,23.8c-16.6,5.2-34.6,7.7-54,7.7c-11.6,0-22.9-0.5-33.8-1.5
	c-11-1-20.8-1.5-29.6-1.5c-5.4,0-10.3,0.1-14.7,0.2c-4.4,0.1-8.6,0.3-12.8,0.6c-4.1,0.3-8.3,0.6-12.6,1.2c-4.3,0.5-9,1-14.1,1.5
	c-1.5,0.3-2.8-0.3-3.7-1.5c-0.9-1.3-1.5-2.7-1.7-4.3c-0.3-1.5,0.1-3.1,1-4.6c0.9-1.5,2.4-2.4,4.4-2.7c6.2-0.8,11.5-1.9,15.9-3.3
	c4.4-1.4,8-3.4,10.8-6c2.8-2.6,4.9-5.9,6.2-10.1c1.3-4.1,1.9-9.5,1.9-16.2V458.5c0-5.7-0.2-11.2-0.6-16.6
	c-0.4-5.4-1.2-10.4-2.5-15.1c-1.3-4.6-3.3-8.6-6-12c-2.7-3.3-6.4-5.7-11-7c-2.8-0.8-5.8-1.4-8.9-1.9c-3.1-0.5-6.1-0.9-8.9-1.2
	c-1.5,0-2.7-0.6-3.5-1.9c-0.8-1.3-1.2-2.7-1.2-4.3c0-1.5,0.4-3,1.2-4.3c0.8-1.3,1.9-1.9,3.5-1.9c8.8,0,16.6,0.3,23.6,0.8
	c7,0.5,15.1,0.8,24.4,0.8c10.6,0,21-0.2,31.3-0.6c10.3-0.4,20.8-0.7,31.3-1c21.1,0,40.7,3.4,58.6,10.1c17.9,6.7,33.3,16,46.2,28
	c12.9,12,23,26.3,30.4,42.9c7.3,16.6,11,34.7,11,54.3c0,4.1-0.1,8.2-0.4,12.1c0.2-0.6,0.5-1.1,0.7-1.7c7.4-16.6,17.7-31.3,29.4-45.1
	c3.7-4.3,7.5-8.4,11.4-12.5c1.1-1.1,1.6-1.1,2.4,0.2c1.9,2.7,1.6,5.7,1.2,8.7c-1.3,8.2-3.1,16.3-4.1,24.5c-0.3,2.7-0.4,5.5-0.6,8.7
	c7.9-7.8,16-14.7,24.9-20.6c8.9-5.9,17.8-11.6,28.5-15.7c-5.4,9.3-8.7,18.6-9.1,29c3.1-1.4,5.6-3.3,8.3-4.9
	c4.8-2.7,9.3-5.8,14.9-6.7c4.7-0.8,9.3-0.3,13.8,1.2c1.9,0.6,0.4,1.3,0,1.8c-5.8,6.1-11.3,12.4-16,19.3c-9,13.3-14.9,27.7-16.5,43.8
	c-1.4,14,0.7,27.4,7.9,39.6c7.5,12.6,18.2,20.9,32.8,23.6c8.5,1.5,16.7,0.5,24.8-2.8c18.6-7.5,32-21,43.3-37
	c2.2-3.1,4.2-6.4,6.2-9.7c0.7-1.2,1.3-1.3,2.3-0.5c4.5,3.7,9,7.4,13.5,11.2c6.7,5.6,13.4,11.3,20.1,16.9
	C583,612.8,583.1,613.5,581.9,615.9z M291.6,527.3c0-18.8-1.9-35.5-5.8-50.1c-3.9-14.6-10.2-26.8-19-36.7
	c-8.8-9.9-20.4-17.4-35-22.4c-14.6-5-32.4-7.5-53.6-7.5c-5.2,0-8.8,0.9-10.8,2.7c-2.1,1.8-3.1,5.3-3.1,10.4v157
	c0,12.9,0.6,23.1,1.7,30.7c1.2,7.6,3.4,13.3,6.8,17.2c3.3,3.9,8.2,6.4,14.5,7.5c6.3,1.2,14.8,1.7,25.3,1.7c11.6,0,22.2-2.4,31.9-7.3
	c9.7-4.9,18-12,24.9-21.5c7-9.4,12.4-20.9,16.2-34.6C289.7,560.8,291.6,545.1,291.6,527.3z"/>
</svg>
